<?xml version="1.0" encoding="utf-8"?>
<!-- Generator: Adobe Illustrator 16.0.0, SVG Export Plug-In . SVG Version: 6.00 Build 0)  -->
<!DOCTYPE svg PUBLIC "-//W3C//DTD SVG 1.1//EN" "http://www.w3.org/Graphics/SVG/1.1/DTD/svg11.dtd">
<svg version="1.1" id="Слой_1" xmlns="http://www.w3.org/2000/svg" xmlns:xlink="http://www.w3.org/1999/xlink" x="0px" y="0px"
	 width="106.234px" height="77.568px" viewBox="12.266 8.266 106.234 77.568" enable-background="new 12.266 8.266 106.234 77.568"
	 xml:space="preserve">
<g>
	<g>
		<g>
			<path d="M45.96,65.444l-5.332-1.862c-3.522-1.241-5.28-3.554-5.28-6.939c0-2.616,0.786-4.559,2.363-5.835
				c1.307-1.072,3.086-1.607,5.332-1.607c4.86,0,7.294,2.681,7.294,8.047h2.113c0-6.505-3.202-9.758-9.609-9.758
				c-2.85,0-5.162,0.847-6.94,2.54c-1.777,1.692-2.664,3.965-2.664,6.813c0,2.348,0.619,4.229,1.859,5.635
				c1.142,1.241,2.949,2.298,5.433,3.168l4.073,1.41c2.246,0.771,3.84,1.643,4.779,2.612c1.171,1.208,1.758,2.901,1.758,5.083
				c0,2.312-0.771,4.248-2.313,5.807c-1.543,1.559-3.539,2.34-5.985,2.34c-2.515,0-4.501-0.761-5.96-2.289
				c-1.458-1.524-2.188-3.462-2.188-5.811v-1.859H32.58v2.365c0,2.313,0.671,4.291,2.012,5.934c1.813,2.247,4.56,3.369,8.249,3.369
				c2.949,0,5.423-0.895,7.419-2.689c1.995-1.794,2.994-4.232,2.994-7.318c0-2.515-0.637-4.493-1.913-5.934
				C50.233,67.388,48.441,66.316,45.96,65.444z"/>
		</g>
	</g>
	<g>
		<g>
			<path d="M60.898,79.677v-20.27h4.373v-1.711h-4.373v-7.793h-1.914v7.793h-3.571v1.711h3.571v20.472
				c0,2.949,1.291,4.426,3.873,4.426c0.872,0,1.776-0.102,2.717-0.301v-1.709c-0.672,0.2-1.458,0.301-2.365,0.301
				C61.668,82.596,60.898,81.623,60.898,79.677z"/>
		</g>
	</g>
	<g>
		<g>
			<path d="M76.137,57.096c-3.354,0-5.752,1.341-7.192,4.021c-1.173,2.215-1.762,5.449-1.762,9.708c0,9.188,2.884,13.78,8.652,13.78
				c3.354,0,5.75-1.34,7.192-4.021c1.174-2.215,1.762-5.47,1.762-9.76C84.787,61.672,81.904,57.096,76.137,57.096z M81.216,79.728
				c-1.074,2.113-2.816,3.169-5.229,3.169c-2.415,0-4.16-1.056-5.231-3.169c-0.974-1.943-1.459-4.895-1.459-8.853
				c0-3.99,0.485-6.957,1.459-8.9c1.071-2.115,2.816-3.172,5.231-3.172c2.413,0,4.155,1.057,5.229,3.172
				c0.974,1.943,1.461,4.91,1.461,8.9C82.677,74.833,82.189,77.784,81.216,79.728z"/>
		</g>
	</g>
	<g>
		<g>
			<path d="M91.176,62.272v-4.576h-1.913v26.305h1.913V67.302c0-2.345,0.552-4.306,1.659-5.886c1.24-1.74,2.917-2.613,5.029-2.613
				h1.105v-1.707h-1.119C94.521,57.096,92.296,58.82,91.176,62.272z"/>
		</g>
	</g>
	<g>
		<g>
			<path d="M114.311,79.879c-1.14,2.012-2.897,3.018-5.279,3.018c-2.683,0-4.479-1.508-5.382-4.526
				c-0.538-1.675-0.804-4.228-0.804-7.646h14.888c0-4.491-0.587-7.829-1.76-10.008c-1.344-2.415-3.489-3.62-6.438-3.62
				c-2.919,0-5.115,1.139-6.59,3.418c-1.478,2.281-2.214,5.484-2.214,9.607c0,4.828,0.568,8.366,1.709,10.612
				c1.309,2.583,3.571,3.872,6.791,3.872c2.717,0,4.811-1.039,6.285-3.116c1.241-1.711,1.863-3.74,1.863-6.085h-1.911
				C115.469,77.044,115.082,78.538,114.311,79.879z M103.951,62.627c1.104-2.55,2.933-3.824,5.481-3.824
				c4.124,0,6.186,3.404,6.186,10.213h-12.774C102.846,66.465,103.213,64.335,103.951,62.627z"/>
		</g>
	</g>
	<g>
		<g>
			<path d="M14.023,54.432l-0.077-1.044h-1.681v11.318h1.835v-7.26c0-1.741,1.391-2.475,3.169-2.186v-1.873
				C15.879,53.1,14.586,53.582,14.023,54.432z"/>
		</g>
	</g>
	<g>
		<g>
			<path d="M25.651,60.749c0,1.603-1.102,2.394-2.491,2.394c-1.333,0-2.201-0.809-2.201-2.414v-7.263h-1.855v7.283
				c0,3.013,1.256,4.074,3.748,4.074c1.101,0,2.221-0.233,2.896-1.332l0.115,1.198h1.643V53.466h-1.854V60.749z"/>
		</g>
	</g>
</g>
<g>
	<g>
		<path d="M58.544,30.984c0-0.61,0-1.221,0-1.831c0.039-0.236,0.092-0.469,0.119-0.706c0.164-1.657,0.547-3.253,1.312-4.744
			c0.748-1.46,1.719-2.742,3.068-3.703c2.476-1.76,5.16-2.326,8.097-1.375c1.067,0.347,2.128,0.716,3.192,1.075
			c0.422,0.143,0.852,0.166,1.275,0.032c1.136-0.359,2.268-0.722,3.399-1.087c0.938-0.302,1.882-0.553,2.874-0.591
			c1.057-0.042,2.093,0.104,3.113,0.368c2.078,0.538,3.743,1.692,5.036,3.396c0.089,0.115,0.075,0.183-0.038,0.263
			c-0.191,0.136-0.379,0.284-0.57,0.425c-1.28,0.938-2.289,2.097-2.93,3.567c-0.532,1.228-0.646,2.517-0.619,3.835
			c0.027,1.278,0.301,2.492,0.876,3.638c0.928,1.844,2.389,3.14,4.184,4.097c0.081,0.044,0.177,0.061,0.264,0.09
			c0,0.026,0,0.054,0,0.08c-0.081,0.192-0.171,0.38-0.243,0.574c-1.086,2.919-2.664,5.543-4.736,7.866
			c-0.605,0.676-1.29,1.271-2.135,1.619c-0.505,0.206-1.041,0.395-1.573,0.437c-0.512,0.042-1.056-0.061-1.561-0.197
			c-0.897-0.243-1.782-0.547-2.667-0.846c-1.815-0.614-3.616-0.62-5.425,0.045c-0.817,0.299-1.653,0.551-2.485,0.812
			c-0.331,0.106-0.674,0.176-1.008,0.263c-0.27,0-0.543,0-0.813,0c-0.033-0.016-0.068-0.036-0.102-0.046
			c-0.292-0.087-0.592-0.149-0.872-0.262c-1.019-0.413-1.86-1.09-2.573-1.905c-1.67-1.902-3.087-3.974-4.137-6.287
			c-1.165-2.571-1.918-5.254-2.201-8.065C58.633,31.543,58.583,31.264,58.544,30.984z"/>
		<path d="M82.859,8.335c0.141,3.58-1.325,6.34-4.279,8.32c-1.033,0.695-2.5,1.008-3.754,0.899c0-0.273-0.006-0.547,0.001-0.822
			c0.024-0.98,0.175-1.94,0.573-2.844c1.059-2.384,2.777-4.092,5.234-5.011c0.57-0.214,1.177-0.334,1.769-0.5
			c0.03-0.009,0.058-0.027,0.089-0.042C82.615,8.335,82.737,8.335,82.859,8.335z"/>
	</g>
</g>
</svg>
